<?xml version="1.0" encoding="UTF-8" standalone="no"?>
<svg
   version="1.1"
   width="841.88977"
   height="595.27557"
   id="svg162"
   viewBox="0 0 841.88977 595.27557"
   sodipodi:docname="LOGO ATUALIZADO.cdr"
   xmlns:inkscape="http://www.inkscape.org/namespaces/inkscape"
   xmlns:sodipodi="http://sodipodi.sourceforge.net/DTD/sodipodi-0.dtd"
   xmlns="http://www.w3.org/2000/svg"
   xmlns:svg="http://www.w3.org/2000/svg">
  <defs
     id="defs166" />
  <sodipodi:namedview
     id="namedview164"
     pagecolor="#ffffff"
     bordercolor="#666666"
     borderopacity="1.0"
     inkscape:pageshadow="2"
     inkscape:pageopacity="0.0"
     inkscape:pagecheckerboard="0" />
  <path
     d="m -719.6411,193.7021 v 180.3444 h 551.6416 V 193.7021 Z"
     style="fill:#ffffff;fill-rule:evenodd;stroke:#1b1918;stroke-width:0.5669;stroke-linecap:butt;stroke-linejoin:miter;stroke-dasharray:none"
     id="path2" />
  <path
     d="m -719.6411,397.385 v 180.3444 h 551.6416 V 397.385 Z"
     style="fill:#f07c00;fill-rule:evenodd;stroke:#1b1918;stroke-width:0.5669;stroke-linecap:butt;stroke-linejoin:miter;stroke-dasharray:none"
     id="path4" />
  <path
     d="m -721.7629,596.8244 v 180.3445 h 551.6416 V 596.8244 Z"
     style="fill:#f07c00;fill-rule:evenodd;stroke:#1b1918;stroke-width:0.5669;stroke-linecap:butt;stroke-linejoin:miter;stroke-dasharray:none"
     id="path6" />
  <g
     id="Layer1000">
    <path
       d="M 12.8673,148.4756 V 412.9081 H 821.7194 V 148.4756 Z"
       style="fill:#1b1918;fill-rule:evenodd;stroke:#1b1918;stroke-width:0.5669;stroke-linecap:butt;stroke-linejoin:miter;stroke-dasharray:none"
       id="path8" />
    <g
       id="Layer1001">
      <g
         id="Layer1002">
        <g
           id="Layer1003">
          <path
             d="m 193.9074,208.5694 c 31.2012,2.3948 57.0081,23.2895 65.6819,51.3334 H 223.981 c -6.3938,-10.1084 -17.3379,-17.2266 -30.0736,-18.6821 z m -8.661,32.5482 c -18.1001,1.6194 -32.7818,14.6496 -36.3016,31.5915 h -35.4054 c 3.9939,-35.3632 34.3703,-63.061 71.707,-64.3211 z M 148.1479,281.37 c 0.4193,20.2677 16.5588,36.7987 37.0985,38.6362 v 32.8892 C 145.4087,351.5506 113.4947,320.1081 113.0983,281.37 Z m 45.7595,38.5332 c 13.1828,-1.5066 24.446,-9.0805 30.7299,-19.7577 h 35.3239 c -8.2896,28.664 -34.3958,50.1381 -66.0538,52.568 z"
             style="fill:#ec610c;fill-rule:evenodd"
             id="path10" />
          <path
             d="m 193.9011,208.3355 c 31.2011,2.3948 57.008,23.2895 65.6819,51.3334 h -35.6083 c -6.3938,-10.1084 -17.3379,-17.2266 -30.0736,-18.6821 z m -45.7595,72.8007 c 0.4192,20.2676 16.5588,36.7986 37.0985,38.6361 v 32.8892 c -39.8377,-1.3448 -71.7518,-32.7873 -72.1481,-71.5253 z"
             style="fill:#ffffff;fill-rule:evenodd"
             id="path12" />
        </g>
        <path
           d="m 193.7595,239.2397 c 16.4146,1.9244 29.8753,13.4888 34.5541,28.8708 h -19.5413 c -3.3994,-5.0527 -8.7675,-8.6833 -15.0128,-9.8034 z m 34.3003,53.6101 c -4.8972,14.9793 -18.173,26.1757 -34.3003,28.0667 v -17.5802 c 6.5235,-1.17 12.0897,-5.0788 15.4553,-10.4865 z m -43.1567,28.158 c -20.4813,-1.9738 -36.5743,-18.9289 -37.1574,-39.7594 h 18.9225 c 0.1992,10.8246 7.9526,19.8113 18.2349,21.9617 z M 148.4468,272.392 c 3.3627,-17.759 18.1583,-31.4802 36.4563,-33.2436 v 19.2849 c -7.6016,1.5896 -13.8205,6.9161 -16.6274,13.9587 z"
           style="fill:#565757;fill-rule:evenodd"
           id="path15" />
      </g>
      <path
         d="m 270.103,262.0342 c 5.2468,0.1722 10.4984,0.2826 15.7461,0.2344 17.2093,-0.1587 17.7626,18.9557 2.2797,19.1032 -5.8758,0.0559 -11.4059,-0.1326 -17.1876,-0.1559 -8.6239,-0.0347 -6.9198,1.6918 -7.0676,11.0584 -0.1366,8.6735 -0.0187,13.5547 -0.006,21.9359 0.014,9.4211 10.8086,11.5915 11.3163,-9e-4 0.2809,-6.4171 0.2772,-12.8439 0.4158,-19.2659 7.4855,8.3301 16.2581,15.3728 23.9476,23.4985 8.586,9.073 16.0864,0.8239 8.2678,-6.7256 -6.2888,-6.0712 -12.9283,-13.3116 -19.1175,-19.0506 29.3287,-4.1984 27.8935,-41.7877 -0.5682,-41.926 -6.4033,-0.031 -12.8164,-0.215 -19.1789,0.4281 -7.8049,0.7889 -8.2813,10.557 1.1528,10.8664 z"
         style="fill:#ffffff;fill-rule:evenodd"
         id="path18" />
      <path
         d="m 317.3361,253.9231 c 0.0614,21.8122 0.124,43.6247 0.1848,65.4368 0.0155,5.5823 11.2922,6.0974 11.2922,0 0,-21.8124 0,-43.6249 0,-65.4374 0,-6.0012 -11.494,-6.0081 -11.477,6e-4 z"
         style="fill:#ffffff;fill-rule:evenodd"
         id="path20" />
      <path
         d="m 353.0996,260.3097 c 8.39,-0.3948 16.8002,0.1097 25.2,0.1633 4.4383,0.0284 4.1436,-11.081 -0.5757,-11.081 -8.9313,0 -17.8626,0 -26.7938,0 -20.7249,0 -24.7118,36.9292 -5.1851,41.1659 5.132,1.1134 12.7297,1.3654 18.9304,1.4136 12.1333,0.0944 11.4916,19.6372 1.1556,19.6048 -9.4309,-0.0296 -18.8678,0.202 -28.2904,-0.1736 -5.9315,-0.2362 -6.632,11.5421 0.5746,11.8753 10.2031,0.4718 20.4261,0.2778 30.641,0.3392 19.2397,0.1157 24.8914,-39.6856 0.1116,-41.734 -2.074,-0.1714 -8.5413,-1.0857 -11.6699,-1.3434 -19.4971,-1.6059 -13.2382,-19.7999 -4.0983,-20.2301 z"
         style="fill:#ffffff;fill-rule:evenodd"
         id="path22" />
      <g
         id="Layer1004">
        <path
           d="m 410.465,267.9891 c 0.0614,17.3656 0.124,34.7315 0.1848,52.0971 0.0155,4.4443 11.2922,4.8544 11.2922,0 0,-17.3658 0,-34.7317 0,-52.0976 0,-4.7778 -11.4939,-4.7833 -11.477,5e-4 z"
           style="fill:#ffffff;fill-rule:evenodd"
           id="path24" />
        <path
           d="m 390.5997,261.5982 c 17.101,-0.0669 34.2022,-0.135 51.3033,-0.2013 4.3765,-0.0168 4.7804,-12.2985 0,-12.2985 -17.1013,0 -34.2025,0 -51.3038,0 -4.705,0 -4.7104,12.5183 5e-4,12.4998 z"
           style="fill:#ffffff;fill-rule:evenodd"
           id="path26" />
      </g>
      <path
         d="m 445.7849,316.9287 c 6.3975,-13.8374 13.2852,-29.5735 19.6736,-43.3693 2.7857,-6.0161 1.8981,-5.6388 4.8729,0.3863 7.0033,14.1846 14.3238,30.0998 21.2922,44.1097 4.8981,9.8455 16.5387,2.443 13.324,-3.7824 -9.4625,-18.3191 -19.4455,-39.4566 -28.8764,-57.6064 -3.4633,-6.6656 -13.5031,-6.9305 -17.0415,-0.066 -9.0418,17.5399 -19.0053,37.6154 -27.9756,56.1414 -3.673,7.5873 8.6787,17.2791 14.7308,4.1867 z"
         style="fill:#ffffff;fill-rule:evenodd"
         id="path29" />
      <path
         d="m 521.5675,253.8978 c -0.1185,12.9162 -0.237,25.8328 -0.3556,38.749 -0.0706,8.9404 2.524,15.113 9.7635,16.4678 l 15.3699,-0.0399 c 6.3709,-0.0166 6.7138,13.4758 0.1822,13.4216 -4.7509,-0.0393 -13.1073,0.3607 -17.8083,-0.3312 -16.6627,-2.4533 -20.0513,-15.2186 -19.7987,-27.4472 0.2838,-13.7508 -0.4784,-27.5563 -0.7158,-41.3346 -0.0728,-4.2395 13.4093,-4.5899 13.3628,0.5145 z"
         style="fill:#ffffff;fill-rule:evenodd"
         id="path31" />
      <path
         d="m 591.0542,262.095 c -5.1079,0.1897 -11.0779,-0.4706 -17.5199,0.8018 -6.1278,2.0629 -10.8833,7.0883 -12.1899,11.8599 -1.418,10.895 -0.8457,21.2038 0.5312,24.276 1.2079,6.0038 4.9325,9.1653 9.3729,11.5182 7.6499,2.8735 12.6889,1.7173 18.5154,1.3782 8.2945,-0.4828 7.4944,9.9804 1.2174,11.1128 -6.259,1.1292 -12.534,0.795 -19.5044,0.6084 -7.6614,-1.4283 -18.0671,-9.5988 -20.3207,-16.7029 -2.6152,-8.2442 -4.1928,-29.8525 -0.225,-38.3714 3.1381,-6.7378 6.2893,-13.4723 20.3173,-17.1977 4.2045,-1.4068 12.6752,-0.7329 20.9659,-0.6487 7.4152,0.0754 9.6803,10.9625 -1.1602,11.3654 z"
         style="fill:#f07c00;fill-rule:evenodd"
         id="path33" />
      <path
         d="m 614.8482,317.0165 c 6.3976,-13.8374 13.2853,-29.5735 19.6737,-43.3693 2.7856,-6.0161 1.898,-5.6388 4.8728,0.3863 7.0034,14.1847 14.3239,30.0998 21.2922,44.1097 4.8981,9.8455 16.5387,2.443 13.324,-3.7824 -9.4624,-18.3191 -19.4455,-39.4566 -28.8764,-57.6064 -3.4632,-6.6656 -13.5031,-6.9305 -17.0415,-0.066 -9.0417,17.54 -19.0053,37.6154 -27.9756,56.1414 -3.673,7.5874 8.6788,17.2791 14.7308,4.1867 z"
         style="fill:#f07c00;fill-rule:evenodd"
         id="path35" />
      <path
         d="m 681.2918,262.8443 c 5.2468,0.1722 10.4984,0.2827 15.7461,0.2345 17.2094,-0.1587 17.7627,18.9556 2.2797,19.1031 -5.8758,0.056 -11.4058,-0.1326 -17.1875,-0.1558 -8.624,-0.0347 -6.9199,1.6917 -7.0677,11.0583 -0.1366,8.6736 -0.0186,13.5548 -0.006,21.9359 0.0141,9.4211 10.8087,11.5915 11.3163,-9e-4 0.281,-6.417 0.2772,-12.8439 0.4158,-19.2658 7.4855,8.33 16.2581,15.3727 23.9476,23.4984 8.5861,9.0731 16.0865,0.8239 8.2678,-6.7255 -6.2888,-6.0713 -12.9283,-13.3117 -19.1175,-19.0507 29.3287,-4.1984 27.8935,-41.7877 -0.5682,-41.926 -6.4033,-0.031 -12.8163,-0.215 -19.1789,0.4282 -7.8049,0.7889 -8.2813,10.5569 1.1528,10.8663 z"
         style="fill:#f07c00;fill-rule:evenodd"
         id="path37" />
    </g>
  </g>
  <g
     id="Layer1005">
    <path
       d="m -605.8066,436.0678 c 21.2794,1.6333 38.8798,15.8836 44.7954,35.0097 h -24.285 c -4.3606,-6.894 -11.8246,-11.7486 -20.5104,-12.7413 z m -5.9068,22.1981 c -12.3444,1.1045 -22.3574,9.9911 -24.7579,21.5456 h -24.1467 c 2.7238,-24.1179 23.4407,-43.008 48.9046,-43.8674 z m -25.3014,27.4524 c 0.2859,13.8227 11.2932,25.0969 25.3014,26.3501 v 22.4306 c -27.1696,-0.9172 -48.9351,-22.3611 -49.2054,-48.7807 z m 31.2082,26.2798 c 8.9908,-1.0275 16.6723,-6.1929 20.958,-13.4749 h 24.0911 c -5.6536,19.5491 -23.4581,34.1945 -45.0491,35.8517 z"
       style="fill:#ec610c;fill-rule:evenodd;stroke:#1b1918;stroke-width:0.216;stroke-linecap:butt;stroke-linejoin:miter;stroke-dasharray:none"
       id="path41" />
    <path
       d="m -605.8109,435.9083 c 21.2794,1.6333 38.8798,15.8836 44.7954,35.0097 h -24.285 c -4.3606,-6.894 -11.8246,-11.7486 -20.5104,-12.7413 z m -31.2082,49.6505 c 0.2859,13.8227 11.2932,25.0969 25.3014,26.3501 v 22.4306 c -27.1696,-0.9172 -48.9351,-22.3612 -49.2054,-48.7807 z"
       style="fill:#ffffff;fill-rule:evenodd;stroke:#1b1918;stroke-width:0.216;stroke-linecap:butt;stroke-linejoin:miter;stroke-dasharray:none"
       id="path43" />
  </g>
  <path
     d="m -605.9075,456.9851 c 11.1949,1.3125 20.3752,9.1995 23.5661,19.6901 h -13.3273 c -2.3184,-3.446 -5.9795,-5.9221 -10.2388,-6.686 z m 23.393,36.5624 c -3.3399,10.216 -12.3941,17.852 -23.393,19.1417 v -11.9898 c 4.4491,-0.7979 8.2453,-3.4638 10.5406,-7.1519 z m -29.4331,19.2039 c -13.9683,-1.3461 -24.9438,-12.9096 -25.3415,-27.1161 h 12.9052 c 0.1359,7.3825 5.4237,13.5114 12.4363,14.978 z m -24.8634,-33.1562 c 2.2934,-12.1117 12.3841,-21.4697 24.8634,-22.6723 v 13.1524 c -5.1843,1.0841 -9.4256,4.7168 -11.3399,9.5199 z"
     style="fill:#3a3a3a;fill-rule:evenodd;stroke:#1b1918;stroke-width:0.216;stroke-linecap:butt;stroke-linejoin:miter;stroke-dasharray:none"
     id="path46" />
  <g
     id="Layer1006">
    <path
       d="m -553.8408,472.5311 c 3.5783,0.1175 7.16,0.1928 10.7389,0.1599 11.7369,-0.1082 12.1143,12.9279 1.5548,13.0285 -4.0073,0.0381 -7.7788,-0.0905 -11.722,-0.1063 -5.8816,-0.0237 -4.7194,1.1538 -4.8202,7.5418 -0.0931,5.9155 -0.0127,9.2444 -0.004,14.9604 0.01,6.4253 7.3716,7.9055 7.7178,-6e-4 0.1916,-4.3764 0.1891,-8.7596 0.2836,-13.1394 5.1052,5.6812 11.0881,10.4843 16.3324,16.0261 5.8557,6.1879 10.9711,0.5619 5.6387,-4.5869 -4.289,-4.1406 -8.8172,-9.0786 -13.0383,-12.9926 20.0024,-2.8634 19.0236,-28.4995 -0.3875,-28.5938 -4.3671,-0.0211 -8.7408,-0.1466 -13.0801,0.292 -5.323,0.538 -5.6479,7.1999 0.7862,7.4109 z"
       style="fill:#ffffff;fill-rule:evenodd;stroke:#1b1918;stroke-width:0.216;stroke-linecap:butt;stroke-linejoin:miter;stroke-dasharray:none"
       id="path48" />
    <path
       d="m -521.6275,466.9993 c 0.0418,14.876 0.0845,29.7523 0.126,44.6283 0.0106,3.8071 7.7014,4.1585 7.7014,0 0,-14.8762 0,-29.7524 0,-44.6287 0,-4.0929 -7.839,-4.0976 -7.8274,4e-4 z"
       style="fill:#ffffff;fill-rule:evenodd;stroke:#1b1918;stroke-width:0.216;stroke-linecap:butt;stroke-linejoin:miter;stroke-dasharray:none"
       id="path50" />
    <path
       d="m -497.2366,471.355 c 5.722,-0.2693 11.4578,0.0748 17.1865,0.1114 3.027,0.0194 2.826,-7.5573 -0.3926,-7.5573 -6.0912,0 -12.1824,0 -18.2736,0 -14.1344,0 -16.8535,25.1859 -3.5362,28.0753 3.5,0.7594 8.6817,0.9313 12.9106,0.9642 8.275,0.0643 7.8374,13.3926 0.7882,13.3705 -6.4319,-0.0201 -12.868,0.1378 -19.2942,-0.1184 -4.0453,-0.1611 -4.5231,7.8718 0.3918,8.0991 6.9586,0.3217 13.9307,0.1894 20.8973,0.2313 13.1217,0.0789 16.9761,-27.0658 0.0762,-28.4629 -1.4145,-0.1168 -5.8252,-0.7404 -7.9589,-0.9161 -13.2972,-1.0953 -9.0286,-13.5037 -2.7951,-13.7971 z"
       style="fill:#ffffff;fill-rule:evenodd;stroke:#1b1918;stroke-width:0.216;stroke-linecap:butt;stroke-linejoin:miter;stroke-dasharray:none"
       id="path52" />
    <g
       id="Layer1007">
      <path
         d="m -458.1131,476.5924 c 0.0419,11.8435 0.0845,23.6871 0.126,35.5306 0.0106,3.031 7.7014,3.3107 7.7014,0 0,-11.8437 0,-23.6873 0,-35.5309 0,-3.2585 -7.839,-3.2623 -7.8274,3e-4 z"
         style="fill:#ffffff;fill-rule:evenodd;stroke:#1b1918;stroke-width:0.216;stroke-linecap:butt;stroke-linejoin:miter;stroke-dasharray:none"
         id="path54" />
      <path
         d="m -471.6614,472.2338 c 11.663,-0.0456 23.3262,-0.0921 34.9892,-0.1373 2.9848,-0.0115 3.2602,-8.3876 0,-8.3876 -11.6632,0 -23.3263,0 -34.9895,0 -3.2089,0 -3.2125,8.5375 3e-4,8.5249 z"
         style="fill:#ffffff;fill-rule:evenodd;stroke:#1b1918;stroke-width:0.216;stroke-linecap:butt;stroke-linejoin:miter;stroke-dasharray:none"
         id="path56" />
    </g>
    <path
       d="m -434.0248,509.9695 c 4.3632,-9.4372 9.0607,-20.1693 13.4176,-29.5781 1.8998,-4.1031 1.2945,-3.8457 3.3233,0.2634 4.7763,9.6741 9.7689,20.5283 14.5214,30.0831 3.3405,6.7147 11.2795,1.6661 9.087,-2.5796 -6.4534,-12.4937 -13.2619,-26.9096 -19.6938,-39.2879 -2.362,-4.546 -9.2092,-4.7266 -11.6224,-0.045 -6.1666,11.9623 -12.9617,25.6539 -19.0795,38.2887 -2.505,5.1747 5.9189,11.7845 10.0464,2.8554 z"
       style="fill:#ffffff;fill-rule:evenodd;stroke:#1b1918;stroke-width:0.216;stroke-linecap:butt;stroke-linejoin:miter;stroke-dasharray:none"
       id="path59" />
    <path
       d="m -382.3406,466.9821 c -0.0808,8.8089 -0.1616,17.618 -0.2425,26.427 -0.0481,6.0974 1.7214,10.3071 6.6588,11.2311 l 10.4823,-0.0272 c 4.345,-0.0113 4.5789,9.1906 0.1243,9.1536 -3.2401,-0.0268 -8.9393,0.246 -12.1454,-0.2258 -11.364,-1.6732 -13.6751,-10.3792 -13.5028,-18.7192 0.1935,-9.3781 -0.3263,-18.7936 -0.4882,-28.1904 -0.0497,-2.8914 9.1452,-3.1304 9.1135,0.3509 z"
       style="fill:#ffffff;fill-rule:evenodd;stroke:#1b1918;stroke-width:0.216;stroke-linecap:butt;stroke-linejoin:miter;stroke-dasharray:none"
       id="path61" />
  </g>
  <g
     id="Layer1008">
    <path
       d="m -334.9503,472.5726 c -3.4836,0.1294 -7.5551,-0.321 -11.9487,0.5468 -4.1791,1.4069 -7.4224,4.8343 -8.3135,8.0885 -0.9671,7.4305 -0.5768,14.4611 0.3623,16.5564 0.8237,4.0946 3.364,6.2508 6.3923,7.8555 5.2173,1.9597 8.654,1.1712 12.6277,0.9399 5.6568,-0.3293 5.1112,6.8067 0.8302,7.579 -4.2686,0.7702 -8.5482,0.5422 -13.3021,0.415 -5.2251,-0.9742 -12.3219,-6.5465 -13.8588,-11.3915 -1.7836,-5.6226 -2.8595,-20.3596 -0.1535,-26.1695 2.1402,-4.5953 4.2894,-9.1882 13.8565,-11.7289 2.8675,-0.9595 8.6446,-0.4999 14.2989,-0.4425 5.0572,0.0515 6.602,7.4766 -0.7913,7.7513 z"
       style="fill:#3a3a3a;fill-rule:evenodd;stroke:#565757;stroke-width:0.5669;stroke-linecap:butt;stroke-linejoin:miter;stroke-dasharray:none"
       id="path64" />
    <path
       d="m -318.7226,510.0294 c 4.3632,-9.4372 9.0606,-20.1693 13.4175,-29.5781 1.8999,-4.1031 1.2945,-3.8457 3.3233,0.2634 4.7764,9.674 9.769,20.5282 14.5214,30.0831 3.3406,6.7147 11.2795,1.6661 9.0871,-2.5796 -6.4535,-12.4938 -13.262,-26.9097 -19.6939,-39.2879 -2.3619,-4.546 -9.2092,-4.7266 -11.6224,-0.045 -6.1665,11.9623 -12.9617,25.6539 -19.0795,38.2887 -2.505,5.1746 5.919,11.7845 10.0465,2.8554 z"
       style="fill:#3a3a3a;fill-rule:evenodd;stroke:#565757;stroke-width:0.5669;stroke-linecap:butt;stroke-linejoin:miter;stroke-dasharray:none"
       id="path66" />
    <path
       d="m -273.4077,473.0836 c 3.5783,0.1175 7.16,0.1928 10.7389,0.1599 11.7369,-0.1082 12.1142,12.9279 1.5548,13.0285 -4.0074,0.0381 -7.7789,-0.0904 -11.722,-0.1063 -5.8816,-0.0237 -4.7194,1.1538 -4.8202,7.5419 -0.0932,5.9154 -0.0127,9.2444 -0.004,14.9603 0.01,6.4253 7.3716,7.9055 7.7178,-5e-4 0.1916,-4.3765 0.1891,-8.7597 0.2836,-13.1395 5.1051,5.6812 11.0881,10.4843 16.3324,16.0261 5.8557,6.1879 10.971,0.5619 5.6386,-4.5869 -4.289,-4.1406 -8.8171,-9.0786 -13.0382,-12.9926 20.0023,-2.8634 19.0235,-28.4995 -0.3875,-28.5938 -4.3671,-0.0211 -8.7408,-0.1466 -13.0801,0.292 -5.323,0.5381 -5.6479,7.1999 0.7862,7.4109 z"
       style="fill:#3a3a3a;fill-rule:evenodd;stroke:#565757;stroke-width:0.5669;stroke-linecap:butt;stroke-linejoin:miter;stroke-dasharray:none"
       id="path68" />
  </g>
  <g
     id="Layer1009">
    <path
       d="m -615.3069,630.0696 c 21.2794,1.6332 38.8798,15.8836 44.7954,35.0096 h -24.285 c -4.3606,-6.894 -11.8246,-11.7486 -20.5104,-12.7413 z m -5.9068,22.1981 c -12.3444,1.1044 -22.3574,9.991 -24.7579,21.5455 h -24.1467 c 2.7238,-24.1179 23.4407,-43.0079 48.9046,-43.8673 z m -25.3014,27.4523 c 0.2859,13.8227 11.2932,25.0969 25.3014,26.3501 v 22.4306 c -27.1696,-0.9171 -48.9351,-22.3611 -49.2054,-48.7807 z m 31.2082,26.2798 c 8.9907,-1.0275 16.6723,-6.1929 20.958,-13.4748 h 24.0911 c -5.6536,19.549 -23.4582,34.1945 -45.0491,35.8516 z"
       style="fill:#ec610c;fill-rule:evenodd"
       id="path71" />
    <path
       d="m -615.3112,629.9101 c 21.2794,1.6332 38.8798,15.8836 44.7954,35.0096 h -24.285 c -4.3607,-6.894 -11.8246,-11.7486 -20.5104,-12.7413 z m -31.2083,49.6504 c 0.286,13.8227 11.2932,25.0969 25.3015,26.3501 v 22.4306 c -27.1696,-0.9171 -48.9351,-22.3611 -49.2054,-48.7807 z"
       style="fill:#ffffff;fill-rule:evenodd"
       id="path73" />
  </g>
  <path
     d="m -615.4078,650.9869 c 11.1949,1.3125 20.3751,9.1995 23.5661,19.69 h -13.3273 c -2.3184,-3.4459 -5.9795,-5.922 -10.2388,-6.6859 z m 23.393,36.5623 c -3.3399,10.216 -12.3941,17.852 -23.393,19.1417 v -11.9898 c 4.4491,-0.7979 8.2453,-3.4637 10.5406,-7.1519 z m -29.4331,19.204 c -13.9683,-1.3462 -24.9438,-12.9097 -25.3415,-27.1162 h 12.9052 c 0.1359,7.3825 5.4237,13.5115 12.4363,14.9781 z m -24.8634,-33.1563 c 2.2934,-12.1117 12.3841,-21.4696 24.8634,-22.6723 v 13.1524 c -5.1843,1.0842 -9.4256,4.7168 -11.34,9.5199 z"
     style="fill:#3a3a3a;fill-rule:evenodd"
     id="path76" />
  <g
     id="Layer1010">
    <path
       d="m -563.3411,666.5329 c 3.5783,0.1174 7.16,0.1927 10.7389,0.1599 11.7369,-0.1083 12.1143,12.9278 1.5548,13.0284 -4.0073,0.0382 -7.7788,-0.0904 -11.722,-0.1063 -5.8816,-0.0237 -4.7194,1.1538 -4.8202,7.5419 -0.0931,5.9154 -0.0127,9.2444 -0.004,14.9604 0.01,6.4252 7.3716,7.9055 7.7178,-6e-4 0.1916,-4.3765 0.1891,-8.7596 0.2836,-13.1394 5.1052,5.6811 11.0881,10.4842 16.3324,16.026 5.8557,6.1879 10.971,0.562 5.6387,-4.5868 -4.289,-4.1407 -8.8172,-9.0787 -13.0383,-12.9927 20.0023,-2.8633 19.0236,-28.4994 -0.3875,-28.5938 -4.3671,-0.0211 -8.7408,-0.1466 -13.0801,0.292 -5.323,0.5381 -5.6479,7.2 0.7862,7.411 z"
       style="fill:#3a3a3a;fill-rule:evenodd;stroke:#3a3a3a;stroke-width:0.5669;stroke-linecap:butt;stroke-linejoin:miter;stroke-dasharray:none"
       id="path78" />
    <path
       d="m -531.1279,661.001 c 0.0419,14.8761 0.0846,29.7523 0.1261,44.6283 0.0106,3.8072 7.7013,4.1585 7.7013,0 0,-14.8762 0,-29.7524 0,-44.6286 0,-4.0929 -7.8389,-4.0976 -7.8274,3e-4 z"
       style="fill:#3a3a3a;fill-rule:evenodd;stroke:#3a3a3a;stroke-width:0.5669;stroke-linecap:butt;stroke-linejoin:miter;stroke-dasharray:none"
       id="path80" />
    <path
       d="m -506.7369,665.3568 c 5.722,-0.2693 11.4578,0.0747 17.1865,0.1113 3.027,0.0194 2.826,-7.5573 -0.3926,-7.5573 -6.0912,0 -12.1824,0 -18.2736,0 -14.1344,0 -16.8536,25.186 -3.5362,28.0754 3.5,0.7594 8.6817,0.9312 12.9106,0.9641 8.275,0.0644 7.8374,13.3927 0.7882,13.3706 -6.432,-0.0202 -12.868,0.1377 -19.2942,-0.1185 -4.0454,-0.161 -4.5231,7.8719 0.3918,8.0991 6.9586,0.3218 13.9307,0.1895 20.8973,0.2313 13.1216,0.0789 16.9761,-27.0658 0.0762,-28.4628 -1.4145,-0.1169 -5.8252,-0.7404 -7.959,-0.9162 -13.2971,-1.0952 -9.0285,-13.5036 -2.795,-13.797 z"
       style="fill:#3a3a3a;fill-rule:evenodd;stroke:#3a3a3a;stroke-width:0.5669;stroke-linecap:butt;stroke-linejoin:miter;stroke-dasharray:none"
       id="path82" />
    <g
       id="Layer1011">
      <path
         d="m -467.6134,670.5941 c 0.0419,11.8435 0.0845,23.6871 0.126,35.5306 0.0106,3.031 7.7014,3.3107 7.7014,0 0,-11.8436 0,-23.6873 0,-35.5309 0,-3.2585 -7.839,-3.2623 -7.8274,3e-4 z"
         style="fill:#3a3a3a;fill-rule:evenodd;stroke:#3a3a3a;stroke-width:0.5669;stroke-linecap:butt;stroke-linejoin:miter;stroke-dasharray:none"
         id="path84" />
      <path
         d="m -481.1617,666.2355 c 11.663,-0.0456 23.3262,-0.092 34.9892,-0.1372 2.9848,-0.0115 3.2602,-8.3877 0,-8.3877 -11.6632,0 -23.3263,0 -34.9895,0 -3.2089,0 -3.2125,8.5375 3e-4,8.5249 z"
         style="fill:#3a3a3a;fill-rule:evenodd;stroke:#3a3a3a;stroke-width:0.5669;stroke-linecap:butt;stroke-linejoin:miter;stroke-dasharray:none"
         id="path86" />
    </g>
    <path
       d="m -443.5251,703.9712 c 4.3632,-9.4372 9.0606,-20.1693 13.4176,-29.5781 1.8998,-4.103 1.2944,-3.8457 3.3233,0.2635 4.7763,9.674 9.7689,20.5282 14.5214,30.083 3.3405,6.7147 11.2795,1.6662 9.087,-2.5796 -6.4534,-12.4937 -13.2619,-26.9096 -19.6938,-39.2879 -2.362,-4.546 -9.2092,-4.7266 -11.6224,-0.045 -6.1666,11.9624 -12.9618,25.6539 -19.0795,38.2888 -2.5051,5.1746 5.9189,11.7844 10.0464,2.8553 z"
       style="fill:#3a3a3a;fill-rule:evenodd;stroke:#3a3a3a;stroke-width:0.5669;stroke-linecap:butt;stroke-linejoin:miter;stroke-dasharray:none"
       id="path89" />
    <path
       d="m -391.8409,660.9838 c -0.0808,8.809 -0.1617,17.6181 -0.2425,26.427 -0.0481,6.0975 1.7214,10.3072 6.6588,11.2312 l 10.4823,-0.0272 c 4.345,-0.0114 4.5789,9.1906 0.1243,9.1536 -3.2402,-0.0269 -8.9393,0.246 -12.1454,-0.2259 -11.364,-1.6732 -13.6751,-10.3792 -13.5028,-18.7192 0.1935,-9.3781 -0.3263,-18.7935 -0.4882,-28.1904 -0.0497,-2.8914 9.1452,-3.1303 9.1135,0.3509 z"
       style="fill:#3a3a3a;fill-rule:evenodd;stroke:#3a3a3a;stroke-width:0.5669;stroke-linecap:butt;stroke-linejoin:miter;stroke-dasharray:none"
       id="path91" />
  </g>
  <g
     id="Layer1012">
    <path
       d="m -344.4506,666.5744 c -3.4836,0.1293 -7.5552,-0.321 -11.9487,0.5468 -4.1792,1.4069 -7.4224,4.8342 -8.3135,8.0885 -0.9671,7.4305 -0.5768,14.4611 0.3622,16.5563 0.8238,4.0947 3.3641,6.2508 6.3924,7.8555 5.2173,1.9598 8.654,1.1712 12.6276,0.94 5.6569,-0.3293 5.1113,6.8067 0.8303,7.579 -4.2687,0.7701 -8.5483,0.5421 -13.3021,0.4149 -5.2251,-0.9741 -12.3219,-6.5464 -13.8589,-11.3915 -1.7836,-5.6225 -2.8594,-20.3596 -0.1534,-26.1695 2.1402,-4.5952 4.2894,-9.1881 13.8565,-11.7289 2.8675,-0.9595 8.6446,-0.4998 14.2989,-0.4424 5.0572,0.0514 6.602,7.4765 -0.7913,7.7513 z"
       style="fill:#ffffff;fill-rule:evenodd;stroke:#f07c00;stroke-width:0.5669;stroke-linecap:butt;stroke-linejoin:miter;stroke-dasharray:none"
       id="path94" />
    <path
       d="m -328.2229,704.0311 c 4.3631,-9.4372 9.0606,-20.1693 13.4175,-29.5781 1.8999,-4.103 1.2945,-3.8457 3.3233,0.2635 4.7764,9.674 9.769,20.5282 14.5214,30.083 3.3405,6.7147 11.2795,1.6662 9.0871,-2.5796 -6.4535,-12.4937 -13.262,-26.9096 -19.6939,-39.2879 -2.3619,-4.546 -9.2092,-4.7266 -11.6224,-0.045 -6.1665,11.9624 -12.9617,25.6539 -19.0795,38.2888 -2.505,5.1746 5.9189,11.7844 10.0465,2.8553 z"
       style="fill:#ffffff;fill-rule:evenodd;stroke:#f07c00;stroke-width:0.5669;stroke-linecap:butt;stroke-linejoin:miter;stroke-dasharray:none"
       id="path96" />
    <path
       d="m -282.908,667.0854 c 3.5783,0.1174 7.16,0.1928 10.7389,0.1599 11.7369,-0.1083 12.1142,12.9278 1.5548,13.0284 -4.0074,0.0382 -7.7789,-0.0904 -11.722,-0.1063 -5.8816,-0.0236 -4.7194,1.1538 -4.8202,7.5419 -0.0932,5.9154 -0.0127,9.2444 -0.004,14.9604 0.01,6.4252 7.3715,7.9055 7.7178,-6e-4 0.1916,-4.3765 0.189,-8.7596 0.2836,-13.1394 5.1051,5.6811 11.0881,10.4843 16.3324,16.0261 5.8557,6.1878 10.971,0.5619 5.6386,-4.5869 -4.289,-4.1407 -8.8171,-9.0787 -13.0382,-12.9927 20.0023,-2.8633 19.0235,-28.4994 -0.3875,-28.5938 -4.3671,-0.0211 -8.7409,-0.1466 -13.0801,0.2921 -5.323,0.538 -5.6479,7.1999 0.7862,7.4109 z"
       style="fill:#ffffff;fill-rule:evenodd;stroke:#f07c00;stroke-width:0.5669;stroke-linecap:butt;stroke-linejoin:miter;stroke-dasharray:none"
       id="path98" />
  </g>
  <g
     id="Layer1013">
    <g
       id="Layer1014">
      <path
         d="m -610.0569,228.0938 c 21.2794,1.6333 38.8799,15.8836 44.7955,35.0097 h -24.2851 c -4.3606,-6.894 -11.8245,-11.7486 -20.5104,-12.7413 z m -5.9068,22.1981 c -12.3444,1.1045 -22.3574,9.9911 -24.7579,21.5456 h -24.1467 c 2.7239,-24.1179 23.4408,-43.0079 48.9046,-43.8673 z m -25.3014,27.4524 c 0.2859,13.8227 11.2932,25.0969 25.3014,26.3501 v 22.4306 c -27.1695,-0.9171 -48.9351,-22.3611 -49.2054,-48.7807 z m 31.2082,26.2798 c 8.9908,-1.0275 16.6724,-6.1929 20.958,-13.4749 h 24.0911 c -5.6535,19.5491 -23.4581,34.1946 -45.0491,35.8517 z"
         style="fill:#ec610c;fill-rule:evenodd"
         id="path101" />
      <path
         d="m -610.0612,227.9343 c 21.2794,1.6333 38.8799,15.8836 44.7955,35.0097 h -24.2851 c -4.3606,-6.894 -11.8246,-11.7486 -20.5104,-12.7413 z m -31.2082,49.6505 c 0.2859,13.8227 11.2932,25.0969 25.3014,26.3501 v 22.4306 c -27.1695,-0.9172 -48.9351,-22.3611 -49.2054,-48.7807 z"
         style="fill:#ffffff;fill-rule:evenodd"
         id="path103" />
    </g>
    <path
       d="m -610.1577,249.0112 c 11.1948,1.3125 20.3751,9.1994 23.5661,19.69 h -13.3273 c -2.3184,-3.4459 -5.9795,-5.922 -10.2388,-6.686 z m 23.3929,36.5623 c -3.3398,10.216 -12.394,17.852 -23.3929,19.1417 v -11.9898 c 4.449,-0.7979 8.2452,-3.4637 10.5406,-7.1519 z m -29.4331,19.2039 c -13.9683,-1.3461 -24.9438,-12.9096 -25.3415,-27.1161 h 12.9052 c 0.1359,7.3825 5.4238,13.5115 12.4363,14.9781 z m -24.8633,-33.1562 c 2.2933,-12.1117 12.384,-21.4697 24.8633,-22.6723 v 13.1524 c -5.1843,1.0841 -9.4256,4.7168 -11.3399,9.5199 z"
       style="fill:#565757;fill-rule:evenodd"
       id="path106" />
  </g>
  <path
     d="m -558.0911,264.5571 c 3.5784,0.1175 7.16,0.1928 10.739,0.1599 11.7369,-0.1082 12.1142,12.9279 1.5548,13.0285 -4.0074,0.0381 -7.7789,-0.0904 -11.7221,-0.1063 -5.8815,-0.0237 -4.7193,1.1538 -4.8201,7.5419 -0.0932,5.9154 -0.0128,9.2444 -0.004,14.9603 0.01,6.4253 7.3715,7.9055 7.7178,-5e-4 0.1916,-4.3765 0.189,-8.7597 0.2836,-13.1395 5.1051,5.6812 11.088,10.4843 16.3323,16.0261 5.8558,6.1879 10.9711,0.5619 5.6387,-4.5869 -4.289,-4.1406 -8.8171,-9.0786 -13.0382,-12.9926 20.0023,-2.8634 19.0235,-28.4995 -0.3875,-28.5938 -4.3671,-0.0211 -8.7409,-0.1466 -13.0802,0.292 -5.3229,0.5381 -5.6478,7.2 0.7862,7.4109 z"
     style="fill:#3a3a3a;fill-rule:evenodd"
     id="path109" />
  <path
     d="m -525.8778,259.0253 c 0.0419,14.8761 0.0845,29.7523 0.126,44.6283 0.0106,3.8072 7.7014,4.1585 7.7014,0 0,-14.8762 0,-29.7524 0,-44.6287 0,-4.0928 -7.839,-4.0975 -7.8274,4e-4 z"
     style="fill:#3a3a3a;fill-rule:evenodd;stroke:#ffffff;stroke-width:0.5669;stroke-linecap:butt;stroke-linejoin:miter;stroke-dasharray:none"
     id="path111" />
  <path
     d="m -501.4869,263.3811 c 5.7221,-0.2694 11.4578,0.0747 17.1865,0.1113 3.027,0.0194 2.826,-7.5573 -0.3926,-7.5573 -6.0912,0 -12.1823,0 -18.2735,0 -14.1345,0 -16.8536,25.186 -3.5363,28.0754 3.5001,0.7593 8.6817,0.9312 12.9106,0.9641 8.2751,0.0644 7.8374,13.3927 0.7882,13.3705 -6.4319,-0.0201 -12.8679,0.1378 -19.2942,-0.1184 -4.0453,-0.1611 -4.5231,7.8719 0.3918,8.0991 6.9586,0.3217 13.9307,0.1894 20.8974,0.2313 13.1216,0.0789 16.9761,-27.0658 0.0761,-28.4628 -1.4145,-0.1169 -5.8252,-0.7405 -7.9589,-0.9162 -13.2972,-1.0953 -9.0285,-13.5037 -2.7951,-13.797 z"
     style="fill:#3a3a3a;fill-rule:evenodd;stroke:#ffffff;stroke-width:0.5669;stroke-linecap:butt;stroke-linejoin:miter;stroke-dasharray:none"
     id="path113" />
  <g
     id="Layer1015">
    <path
       d="m -462.3634,268.6184 c 0.0419,11.8435 0.0846,23.6871 0.1261,35.5306 0.0105,3.031 7.7013,3.3107 7.7013,0 0,-11.8437 0,-23.6873 0,-35.5309 0,-3.2585 -7.8389,-3.2623 -7.8274,3e-4 z"
       style="fill:#3a3a3a;fill-rule:evenodd"
       id="path115" />
    <path
       d="m -475.9116,264.2598 c 11.663,-0.0456 23.3261,-0.0921 34.9891,-0.1373 2.9848,-0.0115 3.2603,-8.3876 0,-8.3876 -11.6632,0 -23.3263,0 -34.9894,0 -3.2089,0 -3.2126,8.5375 3e-4,8.5249 z"
       style="fill:#3a3a3a;fill-rule:evenodd"
       id="path117" />
  </g>
  <path
     d="m -438.275,301.9955 c 4.3631,-9.4372 9.0606,-20.1693 13.4175,-29.5781 1.8999,-4.103 1.2945,-3.8457 3.3233,0.2635 4.7764,9.674 9.769,20.5282 14.5214,30.083 3.3405,6.7147 11.2795,1.6661 9.0871,-2.5796 -6.4535,-12.4937 -13.262,-26.9096 -19.6939,-39.2879 -2.3619,-4.546 -9.2092,-4.7266 -11.6224,-0.045 -6.1665,11.9623 -12.9617,25.6539 -19.0795,38.2887 -2.505,5.1747 5.9189,11.7845 10.0465,2.8554 z"
     style="fill:#3a3a3a;fill-rule:evenodd"
     id="path120" />
  <path
     d="m -386.5909,259.0081 c -0.0808,8.8089 -0.1616,17.6181 -0.2424,26.427 -0.0482,6.0974 1.7213,10.3072 6.6587,11.2312 l 10.4823,-0.0272 c 4.345,-0.0114 4.5789,9.1905 0.1243,9.1535 -3.2401,-0.0268 -8.9393,0.2461 -12.1453,-0.2258 -11.3641,-1.6732 -13.6751,-10.3792 -13.5029,-18.7192 0.1936,-9.3781 -0.3263,-18.7935 -0.4881,-28.1904 -0.0497,-2.8914 9.1452,-3.1304 9.1134,0.3509 z"
     style="fill:#3a3a3a;fill-rule:evenodd"
     id="path122" />
  <path
     d="m -339.2006,264.5986 c -3.4836,0.1294 -7.5551,-0.3209 -11.9486,0.5469 -4.1792,1.4069 -7.4225,4.8342 -8.3136,8.0885 -0.967,7.4304 -0.5768,14.4611 0.3623,16.5563 0.8238,4.0946 3.364,6.2508 6.3924,7.8555 5.2173,1.9597 8.6539,1.1712 12.6276,0.9399 5.6569,-0.3292 5.1112,6.8068 0.8302,7.579 -4.2686,0.7702 -8.5482,0.5422 -13.302,0.415 -5.2251,-0.9742 -12.3219,-6.5464 -13.8589,-11.3915 -1.7836,-5.6226 -2.8595,-20.3596 -0.1535,-26.1695 2.1402,-4.5952 4.2894,-9.1882 13.8566,-11.7289 2.8675,-0.9595 8.6445,-0.4999 14.2988,-0.4424 5.0572,0.0514 6.602,7.4765 -0.7913,7.7512 z"
     style="fill:#f07c00;fill-rule:evenodd"
     id="path124" />
  <path
     d="m -322.9729,302.0554 c 4.3632,-9.4372 9.0606,-20.1693 13.4176,-29.5781 1.8998,-4.1031 1.2944,-3.8457 3.3233,0.2634 4.7763,9.6741 9.7689,20.5283 14.5214,30.0831 3.3405,6.7147 11.2795,1.6661 9.087,-2.5796 -6.4534,-12.4937 -13.2619,-26.9096 -19.6939,-39.2879 -2.3619,-4.546 -9.2091,-4.7266 -11.6224,-0.045 -6.1665,11.9623 -12.9617,25.6539 -19.0795,38.2887 -2.505,5.1747 5.919,11.7845 10.0465,2.8554 z"
     style="fill:#f07c00;fill-rule:evenodd"
     id="path126" />
  <path
     d="m -277.658,265.1097 c 3.5783,0.1174 7.16,0.1927 10.7389,0.1599 11.7369,-0.1083 12.1143,12.9278 1.5548,13.0284 -4.0073,0.0382 -7.7788,-0.0904 -11.722,-0.1063 -5.8816,-0.0237 -4.7194,1.1538 -4.8202,7.5419 -0.0931,5.9154 -0.0127,9.2444 -0.004,14.9604 0.01,6.4252 7.3716,7.9055 7.7178,-6e-4 0.1916,-4.3765 0.1891,-8.7596 0.2836,-13.1394 5.1052,5.6811 11.0881,10.4842 16.3324,16.026 5.8557,6.1879 10.971,0.5619 5.6387,-4.5868 -4.289,-4.1407 -8.8172,-9.0787 -13.0383,-12.9927 20.0024,-2.8633 19.0236,-28.4994 -0.3875,-28.5938 -4.3671,-0.0211 -8.7408,-0.1466 -13.0801,0.292 -5.323,0.5381 -5.6479,7.2 0.7862,7.411 z"
     style="fill:#f07c00;fill-rule:evenodd"
     id="path128" />
  <text
     x="-711.12903"
     y="220.54849"
     id="text132"><tspan
       font-family="Arial"
       font-size="24px"
       fill="#1b1918"
       id="tspan130">2.</tspan></text>
  <text
     x="-707.9649"
     y="421.69269"
     id="text136"><tspan
       font-family="Arial"
       font-size="24px"
       fill="#1b1918"
       id="tspan134">3.</tspan></text>
  <text
     x="-714.32483"
     y="623.51257"
     id="text140"><tspan
       font-family="Arial"
       font-size="24px"
       fill="#1b1918"
       id="tspan138">4.</tspan></text>
  <text
     x="613.47119"
     y="359.2233"
     id="text144"><tspan
       font-family="Arial"
       font-size="18px"
       fill="#ffffff"
       id="tspan142">POLIMENTO</tspan></text>
  <text
     x="260.72589"
     y="360.22311"
     id="text148"><tspan
       font-family="Arial"
       font-size="18px"
       fill="#ffffff"
       id="tspan146">CHAPEAMENTO</tspan></text>
  <text
     x="463.39371"
     y="360.11511"
     id="text152"><tspan
       font-family="Arial"
       font-size="18px"
       fill="#ffffff"
       id="tspan150">PINTURA</tspan></text>
  <text
     x="428.2478"
     y="362.00519"
     id="text156"><tspan
       font-family="Arial"
       font-size="18px"
       fill="#ffffff"
       id="tspan154">|</tspan></text>
  <text
     x="580.24768"
     y="362.00519"
     id="text160"><tspan
       font-family="Arial"
       font-size="18px"
       fill="#ffffff"
       id="tspan158">|</tspan></text>
</svg>
